<?xml version="1.0" encoding="utf-8"?>
<!-- Generator: Adobe Illustrator 24.1.1, SVG Export Plug-In . SVG Version: 6.00 Build 0)  -->
<svg version="1.1" id="Layer_1" xmlns="http://www.w3.org/2000/svg" xmlns:xlink="http://www.w3.org/1999/xlink" x="0px" y="0px"
	 viewBox="0 0 1920 1080" style="enable-background:new 0 0 1920 1080;" xml:space="preserve">
<style type="text/css">
	.st0{fill:#FFFFFF;}
	.st1{fill:#FF3A3A;}
	.st2{fill:#FF8D3A;}
	.st3{fill:#FFDC3A;}
	.st4{fill:#38ED45;}
	.st5{fill:#2B49FF;}
</style>
<g>
	<path class="st0" d="M92.51,666.29V219.63h245.8c54.49,0,81.73,27.82,81.73,83.46v117.54c0,51.33-27.25,76.99-81.73,76.99H195.72
		v168.67H92.51z M317.43,333.83c0-15.53-5.97-23.3-17.9-23.3H195.72v87.76h103.81c11.93,0,17.9-7.77,17.9-23.3V333.83z"/>
	<path class="st0" d="M1733.61,666.29V438.26l-57.31,228.03h-92.86l-57.84-228.03v228.03h-94.98V219.63h127.88l71.1,294.44
		l68.98-294.44H1827v446.66H1733.61z"/>
</g>
<path class="st0" d="M790.13,506.95c0-17.63-4.08-31.73-12.23-42.3c-8.16-10.58-21.18-17.82-39.08-21.74
	c33.41-5.88,50.11-28.98,50.11-69.33v-70.51c0-55.62-27.44-83.43-82.33-83.43H462.6v446.54h103.21V489.91h103.81
	c11.93,0,17.9,5.88,17.9,17.63L687,666.05h0.24l102.89-148.97L790.13,506.95z M687.52,365.02c0,13.13-5.97,19.69-17.9,19.69H565.81
	v-74.18h103.81c11.93,0,17.9,6.56,17.9,19.69V365.02z"/>
<path class="st0" d="M1388.51,579.31V474.7c0-52.5-26.46-78.75-79.35-78.75h-124.09c-11.93,0-17.9-5.88-17.9-17.63v-28.8
	c0-11.75,5.97-17.63,17.9-17.63h193.3V219.63h-233.87c-53.69,0-80.54,28.41-80.54,85.22v106.38c0,52.11,27.83,78.17,83.52,78.17
	H1268c11.93,0,17.9,5.88,17.9,17.63v29.39c0,11.75-5.97,17.63-17.9,17.63h-175.6l77.53,112.25h132.08
	C1359.67,666.29,1388.51,637.3,1388.51,579.31z"/>
<polygon class="st0" points="978.46,389.05 978.46,326 1017,326 1017,219.82 837,219.82 837,326 875.25,326 875.25,393.83 
	928.5,316.72 "/>
<polygon class="st1" points="735.45,676 735.55,675.86 735.55,675.86 607.69,861 735.55,861 735.55,676 "/>
<rect x="735.55" y="676" class="st2" width="127.86" height="185"/>
<polygon class="st2" points="738.68,671.33 738.68,671.33 735.55,675.86 735.55,675.86 "/>
<rect x="863.41" y="676" class="st3" width="127.86" height="185"/>
<polygon class="st4" points="1119.14,675.86 1116,671.33 1116,671.33 1119.14,675.86 "/>
<rect x="991.27" y="676" class="st4" width="127.86" height="185"/>
<polygon class="st5" points="1119.14,675.86 1119.14,675.86 1119.23,676 1119.14,676 1119.14,861 1247,861 "/>
<polygon class="st0" points="735.45,676 735.55,676 863.41,676 991.27,676 1119.14,676 1119.23,676 1119.14,675.86 1116,671.33 
	1100.43,648.77 1044.85,568.3 963.16,450.01 927.34,398.16 889.16,453.44 828.14,541.8 754.38,648.6 738.68,671.33 735.55,675.86 
	"/>
</svg>
